# xmcd
#
# Track frame offsets: 
#        150
#        18945
#        45482
#        68517
#        102770
#        127812
#        153655
#        179210
#        197015
#        226300
#
# Disc length: 4050 seconds
#
# Revision: 1
# Processed by: cddbd v1.5.2PL0 Copyright (c) Steve Scherf et al.
# Submitted via: ExactAudioCopyFreeDBPlugin 1.0
#
DISCID=7a0fd00a
DTITLE=Lamb - Lamb
DYEAR=1996
DGENRE=Electronic
TTITLE0=Lusty
TTITLE1=God Bless
TTITLE2=Cotton Wool
TTITLE3=Trans Fatty Acid
TTITLE4=Zero
TTITLE5=Merge
TTITLE6=Gold
TTITLE7=Closer
TTITLE8=Górecki
TTITLE9=Feela
EXTD=
EXTT0=
EXTT1=
EXTT2=
EXTT3=
EXTT4=
EXTT5=
EXTT6=
EXTT7=
EXTT8=
EXTT9=
PLAYORDER=
